Coordinates
version=1
nRows=16
nColumns=40
inDegrees=yes

Units are S.I. units (second, meters, Newtons, ...)
Angles are in degrees.

endheader
time	pelvis_tilt	pelvis_list	pelvis_rotation	pelvis_tx	pelvis_ty	pelvis_tz	hip_flexion_r	hip_adduction_r	hip_rotation_r	knee_angle_r	knee_angle_r_beta	ankle_angle_r	subtalar_angle_r	mtp_angle_r	hip_flexion_l	hip_adduction_l	hip_rotation_l	knee_angle_l	knee_angle_l_beta	ankle_angle_l	subtalar_angle_l	mtp_angle_l	lumbar_extension	lumbar_bending	lumbar_rotation	arm_flex_r	arm_add_r	arm_rot_r	elbow_flex_r	pro_sup_r	wrist_flex_r	wrist_dev_r	arm_flex_l	arm_add_l	arm_rot_l	elbow_flex_l	pro_sup_l	wrist_flex_l	wrist_dev_l
      0.94000000	     -0.88761551	     -2.26525821	      1.60224879	     -0.75323534	      0.89343809	     -1.06055994	     22.98291290	     -5.47451610	    -15.23452347	    -47.37295708	     -0.82681408	      3.21815895	    -13.18773141	     14.84974359	     11.09250397	      2.82848848	     12.93152357	    -26.46747571	     -0.46194460	     10.49934235	     -2.00548093	     -0.21703807	     -5.17027775	     -2.66834489	     -6.19269673	     -1.21127092	     -6.14070396	     -6.89893445	     24.84721317	     89.95437384	      0.00000000	      0.00000000	      6.40210360	     12.96468712	     13.70979507	     35.43347340	     89.95437384	      0.00000000	      0.00000000
      0.95000000	     -1.07066156	     -2.09133145	      1.67309809	     -0.74888505	      0.89295178	     -1.06083809	     23.55966866	     -5.75920437	    -15.51583023	    -46.11989667	     -0.80494405	      3.37635920	    -12.89449172	     14.68789433	     10.98451944	      2.66058035	     13.10160892	    -26.48954334	     -0.46232975	     10.55880150	     -2.05695401	     -0.26965781	     -4.97594893	     -2.90438596	     -6.20929766	     -1.44623181	     -6.14314927	     -6.97079330	     24.94451900	     89.95437384	      0.00000000	      0.00000000	      6.61922091	     12.98947225	     13.69289084	     35.85120839	     89.95437384	      0.00000000	      0.00000000
      0.96000000	     -1.00464584	     -2.25158796	      1.85184502	     -0.74461167	      0.89301885	     -1.06088530	     23.65477069	     -5.49274715	    -15.59579465	    -44.51385682	     -0.77691336	      3.46085628	    -12.49328280	     14.66647684	     10.59736835	      2.85593256	     12.93219522	    -26.46147198	     -0.46183981	     10.79794831	     -2.48715473	     -0.45480128	     -5.09320609	     -2.76911451	     -6.40267834	     -1.47646699	     -6.02778298	     -7.52637830	     24.83333076	     89.95437384	      0.00000000	      0.00000000	      6.78205808	     13.01926130	     13.80028001	     36.39750400	     89.95437384	      0.00000000	      0.00000000
      0.97000000	     -0.97919462	     -2.26828375	      1.98500367	     -0.74000029	      0.89292450	     -1.06105309	     23.77162467	     -5.48536839	    -15.84932198	    -42.93103846	     -0.74928797	      3.55261729	    -12.02605008	     14.62624891	     10.23400254	      2.92333747	     13.02263145	    -26.45860245	     -0.46178973	     10.89622671	     -2.87598732	     -0.63216128	     -5.11785361	     -2.77026328	     -6.48850352	     -1.60417463	     -5.98620045	     -7.88234256	     24.79180341	     89.95437384	      0.00000000	      0.00000000	      6.96165984	     13.01850817	     13.85361530	     36.86227474	     89.95437384	      0.00000000	      0.00000000
      0.98000000	     -1.23163508	     -2.08545640	      2.03473654	     -0.73578970	      0.89233208	     -1.06117382	     24.38680137	     -5.75332209	    -16.02830499	    -41.65748823	     -0.72706033	      3.60862327	    -11.68306163	     14.45936248	     10.20371482	      2.74195526	     13.19091970	    -26.46942788	     -0.46197867	     10.97451211	     -2.89284920	     -0.68085476	     -4.87280984	     -3.00125548	     -6.46860608	     -1.82406834	     -5.99935680	     -7.92026483	     24.86437761	     89.95437384	      0.00000000	      0.00000000	      7.18749901	     13.00849837	     13.85647361	     37.25677497	     89.95437384	      0.00000000	      0.00000000
      0.99000000	     -1.11505219	     -2.32252523	      2.18279490	     -0.73127199	      0.89251252	     -1.06099147	     24.25617836	     -5.38485069	    -16.14414898	    -39.72868151	     -0.69339630	      3.40712963	    -11.07556482	     14.52478499	      9.75576541	      3.09890667	     13.22278081	    -26.46619836	     -0.46192230	     11.10262737	     -3.42850837	     -0.97240021	     -5.01069020	     -2.76112333	     -6.63646816	     -1.74712456	     -5.90884668	     -8.44899472	     24.59330642	     89.95437384	      0.00000000	      0.00000000	      7.36011910	     12.95139364	     14.16292054	     37.69005250	     89.95437384	      0.00000000	      0.00000000
      1.00000000	     -1.39804030	     -2.10952742	      2.23415871	     -0.72685126	      0.89180389	     -1.06111446	     24.84891748	     -5.67300817	    -16.26736907	    -38.42460731	     -0.67063591	      3.44277115	    -10.71317749	     14.35979643	      9.72116366	      2.86660647	     13.33773565	    -26.44810190	     -0.46160646	     11.18104814	     -3.43924618	     -1.01852109	     -4.71323222	     -3.00376085	     -6.58634820	     -2.00804534	     -5.95253334	     -8.47677777	     24.72737277	     89.95437384	      0.00000000	      0.00000000	      7.54807177	     12.89809136	     14.14176072	     38.13153514	     89.95437384	      0.00000000	      0.00000000
      1.01000000	     -1.40197905	     -2.26987833	      2.35308467	     -0.72238546	      0.89177534	     -1.06084900	     24.86134765	     -5.39655348	    -16.30798611	    -36.49637476	     -0.63698190	      3.18917428	     -9.96697314	     14.35121073	      9.36587132	      3.06541309	     13.21500889	    -26.33705636	     -0.45966835	     11.47876234	     -3.67481988	     -1.22966193	     -4.73465122	     -2.84862350	     -6.70378845	     -1.95397591	     -5.90329359	     -8.75844280	     24.47536036	     89.95437384	      0.00000000	      0.00000000	      7.70998178	     12.87677281	     14.26202196	     38.57689801	     89.95437384	      0.00000000	      0.00000000
      1.02000000	     -1.68369906	     -2.05334235	      2.38065709	     -0.71802089	      0.89109296	     -1.06082462	     25.39140836	     -5.66346992	    -16.50856170	    -35.07256113	     -0.61213167	      3.24500593	     -9.65225332	     14.21698220	      9.34243030	      2.83050807	     13.32951975	    -26.32015387	     -0.45937334	     11.57408037	     -3.69347761	     -1.27999057	     -4.46338669	     -3.09857088	     -6.60548233	     -2.18667653	     -5.94401406	     -8.76687162	     24.55921895	     89.95437384	      0.00000000	      0.00000000	      7.92414808	     12.80900809	     14.22477566	     39.01842004	     89.95437384	      0.00000000	      0.00000000
      1.03000000	     -1.60805801	     -2.28637449	      2.52375399	     -0.71347761	      0.89110067	     -1.06056043	     25.23433114	     -5.31180179	    -16.63453312	    -33.06510197	     -0.57709490	      2.99863066	     -8.98078068	     14.20606579	      8.92764871	      3.12736238	     13.20452765	    -26.25508553	     -0.45823769	     11.70154370	     -3.90806623	     -1.47244996	     -4.58370484	     -2.82424568	     -6.67873234	     -2.18125026	     -5.94061182	     -9.09014086	     24.44895445	     89.95437384	      0.00000000	      0.00000000	      8.13224959	     12.70728188	     14.29374441	     39.44051531	     89.95437384	      0.00000000	      0.00000000
      1.04000000	     -1.78477324	     -2.20204498	      2.56158053	     -0.70905948	      0.89055415	     -1.06028158	     25.56494457	     -5.36910344	    -16.68010335	    -31.51731472	     -0.55008091	      2.89733120	     -8.49565791	     14.09665537	      8.79158936	      3.04899122	     13.17843328	    -26.24548297	     -0.45807009	     11.82784991	     -4.06829937	     -1.60194269	     -4.42134017	     -2.91143121	     -6.65841252	     -2.26191961	     -5.96828836	     -9.10366720	     24.39800704	     89.95437384	      0.00000000	      0.00000000	      8.28049732	     12.65355639	     14.31080123	     39.94061495	     89.95437384	      0.00000000	      0.00000000
      1.05000000	     -2.02824057	     -2.01126865	      2.58225726	     -0.70451430	      0.88981472	     -1.06000671	     26.05496614	     -5.61392889	    -16.99190204	    -30.19063392	     -0.52692597	      3.01212229	     -8.26185356	     13.99022684	      8.70459427	      2.86776856	     13.31253753	    -26.21715585	     -0.45757569	     11.99370766	     -4.07463820	     -1.65323677	     -4.15923596	     -3.12080660	     -6.55915421	     -2.38619939	     -6.00744935	     -9.05660682	     24.31450997	     89.95437384	      0.00000000	      0.00000000	      8.49126378	     12.56132848	     14.30903360	     40.30694848	     89.95437384	      0.00000000	      0.00000000
      1.06000000	     -1.87747688	     -2.25093361	      2.75340470	     -0.69983153	      0.88983236	     -1.05956166	     25.71662130	     -5.26044968	    -17.34092912	    -28.11893760	     -0.49076804	      2.92219425	     -7.45287416	     13.91409765	      8.23108212	      3.19393943	     13.18401745	    -26.22780848	     -0.45776161	     12.15321675	     -4.24732132	     -1.87886491	     -4.39455319	     -2.83150328	     -6.68626079	     -2.31902107	     -6.05205489	     -8.94024891	     24.13734466	     89.95437384	      0.00000000	      0.00000000	      8.63017320	     12.44134656	     14.54502466	     40.84528223	     89.95437384	      0.00000000	      0.00000000
      1.07000000	     -2.02550620	     -2.28879656	      2.96516316	     -0.69559413	      0.88928361	     -1.05936611	     25.94171958	     -5.27510988	    -17.79592346	    -26.58833566	     -0.46405400	      2.86311178	     -6.79346891	     13.72965885	      8.16507222	      3.27213254	     13.08603961	    -26.32295347	     -0.45942221	     12.25028428	     -4.48534657	     -2.11008533	     -4.32247780	     -2.75989918	     -6.81246568	     -2.29521901	     -6.09546163	     -8.93776252	     24.01876448	     89.95437384	      0.00000000	      0.00000000	      8.86233498	     12.34973897	     14.52622592	     41.23110038	     89.95437384	      0.00000000	      0.00000000
      1.08000000	     -2.26457112	     -2.06245461	      2.97100086	     -0.69081164	      0.88846346	     -1.05892926	     26.42015762	     -5.53641512	    -18.20772736	    -25.39817558	     -0.44328179	      3.07777411	     -6.55532219	     13.62058810	      8.04190377	      3.06884653	     13.28194593	    -26.28511670	     -0.45876183	     12.46036740	     -4.50808116	     -2.16074214	     -4.05818172	     -2.98789501	     -6.71420604	     -2.39283253	     -6.13918094	     -8.91798169	     23.89337718	     89.95437384	      0.00000000	      0.00000000	      9.03041724	     12.26153393	     14.49809963	     41.55135292	     89.95437384	      0.00000000	      0.00000000
      1.09000000	     -2.19973354	     -2.25918222	      3.15462071	     -0.68607142	      0.88824613	     -1.05830894	     26.23582776	     -5.27437643	    -18.50489441	    -23.75213648	     -0.41455299	      3.22884104	     -5.18376130	     13.27183957	      7.65997093	      3.39005766	     13.22708805	    -26.30402999	     -0.45909193	     12.60223454	     -4.78736933	     -2.37657752	     -4.17819695	     -2.73608733	     -6.90116932	     -2.25661258	     -6.15433728	     -8.83585905	     23.61456280	     89.95437384	      0.00000000	      0.00000000	      9.12505384	     12.19319162	     14.60887095	     42.00863355	     89.95437384	      0.00000000	      0.00000000
